<?xml version="1.0" encoding="iso-8859-1"?>
<!-- Generator: Adobe Illustrator 19.0.0, SVG Export Plug-In . SVG Version: 6.00 Build 0)  -->
<svg version="1.1" id="Capa_1" xmlns="http://www.w3.org/2000/svg" xmlns:xlink="http://www.w3.org/1999/xlink" x="0px" y="0px"
	 viewBox="0 0 511.949 511.949" style="enable-background:new 0 0 511.949 511.949;" xml:space="preserve">
<g>
	<g transform="translate(1 1)">
		<path style="fill:#607D8B;" d="M502.379,7.525l-0.597,12.715l-6.827,144.384c-0.388,9.219-5.35,17.637-13.227,22.443
			L233.323,338.448l-20.736,18.944l-7.765-7.765l-52.309-52.224l18.944-20.821L322.838,28.176c1.094-1.835,2.413-3.526,3.925-5.035
			c4.917-4.97,11.532-7.897,18.517-8.192l144.384-6.827L502.379,7.525z"/>
		<path style="fill:#CFD8DC;" d="M476.779,16.058l-0.597,12.715l-6.827,144.384c-0.388,9.219-5.35,17.637-13.227,22.443
			L207.723,346.981l-2.901,2.645l-52.309-52.224l18.944-20.821L322.838,28.176c1.094-1.835,2.413-3.526,3.925-5.035l137.301-6.485
			L476.779,16.058z"/>
		<polygon style="fill:#37474F;" points="212.587,357.392 109.846,459.792 92.95,442.896 49.771,399.802 152.512,297.402 
			195.691,340.496 		"/>
		<polygon style="fill:#607D8B;" points="195.691,340.496 92.95,442.896 49.771,399.802 152.512,297.402 		"/>
		<path style="fill:#00838F;" d="M262.422,387.514l-20.053,19.968c-2.64,2.662-6.235,4.16-9.984,4.16
			c-3.749,0-7.344-1.497-9.984-4.16l-18.347-18.347c-0.171-0.171-0.427-0.341-0.597-0.512l-101.035-101.12
			c-2.662-2.64-4.16-6.234-4.16-9.984s1.498-7.344,4.16-9.984l19.968-20.053c5.25-5.183,13.595-5.48,19.2-0.683
			c0.32,0.179,0.608,0.41,0.853,0.683l101.035,101.12l18.944,18.859C267.883,373.03,267.883,381.946,262.422,387.514z"/>
		<path style="fill:#00BCD4;" d="M243.563,368.741l-19.968,19.968c-5.36,5.325-13.954,5.513-19.541,0.427
			c-0.171-0.171-0.427-0.341-0.597-0.512l-101.035-101.12c-2.662-2.64-4.16-6.234-4.16-9.984s1.498-7.344,4.16-9.984l19.968-20.053
			c5.25-5.183,13.595-5.48,19.2-0.683l101.888,101.803C249.048,354.146,249.086,363.15,243.563,368.741z"/>
		<path style="fill:#00838F;" d="M118.379,483.429c-25.393,25.344-66.511,25.344-91.904,0c-2.203-2.198-4.229-4.566-6.059-7.083
			c-20.744-27.777-16.02-66.949,10.733-88.998s66.106-19.204,89.41,6.464C143.863,419.481,142.903,458.925,118.379,483.429z"/>
		<path style="fill:#00BCD4;" d="M99.35,466.362c-20.944,20.963-53.429,25.072-78.933,9.984
			C1.844,451.58,3.359,417.141,24.033,394.1c20.674-23.041,54.748-28.264,81.375-12.474
			C124.728,407.452,122.147,443.548,99.35,466.362z"/>
		<path style="fill:#E91E63;" d="M72.416,468.325c-14.71,0-27.372-10.39-30.243-24.818c-2.87-14.427,4.85-28.873,18.44-34.503
			c13.59-5.63,29.265-0.876,37.438,11.354s6.569,28.531-3.831,38.934C88.452,465.095,80.6,468.348,72.416,468.325z"/>
	</g>
	<g>
		<path d="M73.412,399.121c-18.778,0.002-34.94,13.267-38.603,31.685s6.194,36.858,23.542,44.044s37.358,1.118,47.792-14.494
			c10.434-15.612,8.387-36.421-4.889-49.701C93.888,403.244,83.861,399.09,73.412,399.121z M89.187,454.259
			c-8.826,8.425-22.715,8.425-31.542,0c-8.703-8.709-8.7-22.823,0.007-31.527c8.707-8.705,22.821-8.705,31.528,0
			C97.887,431.436,97.89,445.55,89.187,454.259z"/>
		<path d="M511.303,5.395c-0.853-2.209-2.603-3.953-4.815-4.798c-0.128-0.049-0.273-0.035-0.404-0.079
			c-0.935-0.331-1.921-0.496-2.913-0.486c-0.066,0.001-0.126-0.034-0.192-0.032L345.904,7.404
			c-12.039,0.535-23.026,7.017-29.317,17.296l-145.73,239.181l-21.412-21.414c-8.865-8.832-23.204-8.83-32.067,0.004l-20,19.996
			c-4.253,4.252-6.642,10.02-6.642,16.033c0,6.014,2.389,11.781,6.642,16.033l23.935,23.935l-46.616,46.616
			c-29.811-0.493-56.961,17.087-68.709,44.489c-11.748,27.403-5.763,59.189,15.148,80.441
			c20.911,21.253,52.595,27.753,80.185,16.451c27.59-11.302,45.608-38.164,45.598-67.979c0-0.461-0.058-0.911-0.067-1.37
			l46.556-46.553l23.96,23.96c4.252,4.253,10.02,6.642,16.033,6.642c6.014,0,11.781-2.389,16.033-6.642l19.992-19.996
			c4.253-4.252,6.642-10.02,6.642-16.033c0-6.014-2.389-11.781-6.642-16.033l-21.407-21.409l239.182-145.736
			c10.284-6.287,16.766-17.279,17.292-29.321l7.408-157.071c0.003-0.067-0.033-0.128-0.032-0.194
			c-0.008-0.864-0.148-1.721-0.414-2.542C511.383,5.928,511.402,5.647,511.303,5.395z M113.32,478.396
			c-18.055,18.081-46.006,21.775-68.139,9.006c-22.133-12.769-32.925-38.816-26.309-63.497s28.988-41.838,54.541-41.826
			c1.506,0,3.011,0.096,4.513,0.215c0.075,0.001,0.145,0.011,0.22,0.01c21.886,1.825,40.722,16.19,48.272,36.813
			C133.967,439.742,128.856,462.873,113.32,478.396z M143.503,416.335c-7.211-22.859-25.146-40.746-48.024-47.896l37.883-37.88
			l17.783,17.742l30.197,30.197L143.503,416.335z M259.004,378.492c0.004,1.488-0.587,2.916-1.642,3.967l-19.992,19.996
			c-2.218,2.122-5.713,2.124-7.933,0.004l-29.782-29.783c-0.073-0.079-0.1-0.186-0.176-0.262l-36.147-36.062l-53.886-53.889
			c-1.051-1.051-1.642-2.476-1.642-3.962c0-1.486,0.591-2.912,1.642-3.962l20-19.996c2.192-2.187,5.74-2.189,7.933-0.004
			l119.983,119.996C258.416,375.58,259.008,377.006,259.004,378.492z M478.321,180.742L235.602,328.632l-52.331-52.336
			L331.154,33.583c3.347-5.44,9.177-8.861,15.558-9.129l135.036-6.366L232.813,267.025c-2.188,2.149-3.055,5.307-2.27,8.271
			c0.785,2.965,3.1,5.28,6.065,6.065c2.965,0.785,6.122-0.082,8.271-2.27L493.815,30.156L487.446,165.2
			C487.182,171.577,483.761,177.404,478.321,180.742z"/>
	</g>
</g>
<g>
</g>
<g>
</g>
<g>
</g>
<g>
</g>
<g>
</g>
<g>
</g>
<g>
</g>
<g>
</g>
<g>
</g>
<g>
</g>
<g>
</g>
<g>
</g>
<g>
</g>
<g>
</g>
<g>
</g>
</svg>
